<svg id="Layer_1" data-name="Layer 1" xmlns="http://www.w3.org/2000/svg" xmlns:xlink="http://www.w3.org/1999/xlink" viewBox="0 0 2120.66 2061.13"><defs><style>.cls-1{fill:none;}.cls-2{clip-path:url(#clip-path);}</style><clipPath id="clip-path" transform="translate(60.26 61.13)"><ellipse class="cls-1" cx="1000" cy="1000" rx="722.5" ry="702.5"/></clipPath></defs><g class="cls-2"><polygon points="561.07 2060.63 1060.26 1062.25 1559.45 2060.63 561.07 2060.63"/><path d="M1000,1002.24,1498.38,1999H501.62L1000,1002.24m0-2.24L500,2000H1500L1000,1000Z" transform="translate(60.26 61.13)"/><polygon points="1413.77 0.93 2119.74 706.89 1060.79 1059.87 1413.77 0.93"/><path d="M1353.73-59.28l704.82,704.82L1001.32,998,1353.73-59.28m-.43-1.85L999.74,999.53,2060.4,646,1353.3-61.13Z" transform="translate(60.26 61.13)"/><polygon points="0.93 706.89 706.89 0.93 1059.87 1059.87 0.93 706.89"/><path d="M646.41-59.28,998.82,998-58.41,645.54,646.41-59.28m.44-1.85L-60.26,646,1000.4,999.53,646.85-61.13Z" transform="translate(60.26 61.13)"/></g></svg>
